<mxfile host="app.diagrams.net" agent="Mozilla/5.0 (Windows NT 10.0; Win64; x64) AppleWebKit/537.36 (KHTML, like Gecko) Chrome/129.0.0.0 Safari/537.36" version="24.7.17">
  <diagram name="Página-1" id="XvXNBFbTuyuYUyy_rAK6">
    <mxGraphModel dx="5154" dy="3026" grid="1" gridSize="10" guides="1" tooltips="1" connect="1" arrows="1" fold="1" page="1" pageScale="1" pageWidth="827" pageHeight="1169" math="0" shadow="0">
      <root>
        <mxCell id="0" />
        <mxCell id="1" parent="0" />
        <mxCell id="_vYWTz19FaIlcW65o-NB-2" value="" style="rounded=0;whiteSpace=wrap;html=1;" vertex="1" parent="1">
          <mxGeometry x="-910" y="-190" width="1800" height="1400" as="geometry" />
        </mxCell>
        <mxCell id="_vYWTz19FaIlcW65o-NB-1" value="" style="rounded=0;whiteSpace=wrap;html=1;" vertex="1" parent="1">
          <mxGeometry x="-10" y="-130" width="780" height="1270" as="geometry" />
        </mxCell>
        <mxCell id="Y1LxKdZVDl90hJdr0liV-1" value="Registrar usuarios" style="ellipse;whiteSpace=wrap;html=1;" parent="1" vertex="1">
          <mxGeometry x="110" y="-50" width="140" height="50" as="geometry" />
        </mxCell>
        <mxCell id="Y1LxKdZVDl90hJdr0liV-2" value="Iniciar sesión" style="ellipse;whiteSpace=wrap;html=1;" parent="1" vertex="1">
          <mxGeometry x="180" y="50" width="140" height="50" as="geometry" />
        </mxCell>
        <mxCell id="Y1LxKdZVDl90hJdr0liV-3" value="Cambiar contraseña" style="ellipse;whiteSpace=wrap;html=1;" parent="1" vertex="1">
          <mxGeometry x="170" y="140" width="140" height="50" as="geometry" />
        </mxCell>
        <mxCell id="Y1LxKdZVDl90hJdr0liV-4" value="Acceder según rol" style="ellipse;whiteSpace=wrap;html=1;" parent="1" vertex="1">
          <mxGeometry x="450" y="50" width="140" height="50" as="geometry" />
        </mxCell>
        <mxCell id="Y1LxKdZVDl90hJdr0liV-5" value="Registrar proveedores" style="ellipse;whiteSpace=wrap;html=1;" parent="1" vertex="1">
          <mxGeometry x="450" y="180" width="140" height="50" as="geometry" />
        </mxCell>
        <mxCell id="Y1LxKdZVDl90hJdr0liV-6" value="Modificar proveedores" style="ellipse;whiteSpace=wrap;html=1;" parent="1" vertex="1">
          <mxGeometry x="180" y="220" width="140" height="50" as="geometry" />
        </mxCell>
        <mxCell id="Y1LxKdZVDl90hJdr0liV-7" value="Bajar proveedores" style="ellipse;whiteSpace=wrap;html=1;" parent="1" vertex="1">
          <mxGeometry x="450" y="270" width="140" height="50" as="geometry" />
        </mxCell>
        <mxCell id="Y1LxKdZVDl90hJdr0liV-8" value="Consultar proveedores" style="ellipse;whiteSpace=wrap;html=1;" parent="1" vertex="1">
          <mxGeometry x="190" y="300" width="140" height="50" as="geometry" />
        </mxCell>
        <mxCell id="Y1LxKdZVDl90hJdr0liV-9" value="Registrar productos" style="ellipse;whiteSpace=wrap;html=1;" parent="1" vertex="1">
          <mxGeometry x="450" y="390" width="140" height="50" as="geometry" />
        </mxCell>
        <mxCell id="Y1LxKdZVDl90hJdr0liV-10" value="Modificar productos" style="ellipse;whiteSpace=wrap;html=1;" parent="1" vertex="1">
          <mxGeometry x="190" y="405" width="140" height="50" as="geometry" />
        </mxCell>
        <mxCell id="Y1LxKdZVDl90hJdr0liV-11" value="Bajar productos" style="ellipse;whiteSpace=wrap;html=1;" parent="1" vertex="1">
          <mxGeometry x="450" y="510" width="140" height="50" as="geometry" />
        </mxCell>
        <mxCell id="Y1LxKdZVDl90hJdr0liV-12" value="Consultar productos" style="ellipse;whiteSpace=wrap;html=1;" parent="1" vertex="1">
          <mxGeometry x="190" y="510" width="140" height="50" as="geometry" />
        </mxCell>
        <mxCell id="Y1LxKdZVDl90hJdr0liV-13" value="Visualizar stock disponible" style="ellipse;whiteSpace=wrap;html=1;" parent="1" vertex="1">
          <mxGeometry x="190" y="640" width="140" height="50" as="geometry" />
        </mxCell>
        <mxCell id="Y1LxKdZVDl90hJdr0liV-14" value="Recibir alerta sobre stock" style="ellipse;whiteSpace=wrap;html=1;" parent="1" vertex="1">
          <mxGeometry x="190" y="820" width="140" height="50" as="geometry" />
        </mxCell>
        <mxCell id="Y1LxKdZVDl90hJdr0liV-15" value="Realizar transferencias entre sucursales" style="ellipse;whiteSpace=wrap;html=1;" parent="1" vertex="1">
          <mxGeometry x="450" y="650" width="140" height="50" as="geometry" />
        </mxCell>
        <mxCell id="Y1LxKdZVDl90hJdr0liV-16" value="Registrar fecha" style="ellipse;whiteSpace=wrap;html=1;" parent="1" vertex="1">
          <mxGeometry x="260" y="1030" width="140" height="50" as="geometry" />
        </mxCell>
        <mxCell id="Y1LxKdZVDl90hJdr0liV-17" value="Acceder al historial de cambios" style="ellipse;whiteSpace=wrap;html=1;" parent="1" vertex="1">
          <mxGeometry x="460" y="890" width="140" height="50" as="geometry" />
        </mxCell>
        <mxCell id="Y1LxKdZVDl90hJdr0liV-18" value="Historial de ventas" style="ellipse;whiteSpace=wrap;html=1;" parent="1" vertex="1">
          <mxGeometry x="370" y="770" width="140" height="50" as="geometry" />
        </mxCell>
        <mxCell id="Y1LxKdZVDl90hJdr0liV-19" value="Gestionar multiples ubicaciones" style="ellipse;whiteSpace=wrap;html=1;" parent="1" vertex="1">
          <mxGeometry x="190" y="920" width="140" height="50" as="geometry" />
        </mxCell>
        <mxCell id="Y1LxKdZVDl90hJdr0liV-26" style="rounded=0;orthogonalLoop=1;jettySize=auto;html=1;exitX=1;exitY=0.3333333333333333;exitDx=0;exitDy=0;exitPerimeter=0;entryX=0;entryY=0.5;entryDx=0;entryDy=0;endArrow=none;endFill=0;" parent="1" source="Y1LxKdZVDl90hJdr0liV-20" target="Y1LxKdZVDl90hJdr0liV-1" edge="1">
          <mxGeometry relative="1" as="geometry" />
        </mxCell>
        <mxCell id="Y1LxKdZVDl90hJdr0liV-27" style="rounded=0;orthogonalLoop=1;jettySize=auto;html=1;exitX=1;exitY=0.3333333333333333;exitDx=0;exitDy=0;exitPerimeter=0;entryX=0;entryY=0.5;entryDx=0;entryDy=0;endArrow=none;endFill=0;" parent="1" source="Y1LxKdZVDl90hJdr0liV-20" target="Y1LxKdZVDl90hJdr0liV-2" edge="1">
          <mxGeometry relative="1" as="geometry" />
        </mxCell>
        <mxCell id="Y1LxKdZVDl90hJdr0liV-28" style="rounded=0;orthogonalLoop=1;jettySize=auto;html=1;exitX=1;exitY=0.3333333333333333;exitDx=0;exitDy=0;exitPerimeter=0;entryX=0;entryY=0.5;entryDx=0;entryDy=0;endArrow=none;endFill=0;" parent="1" source="Y1LxKdZVDl90hJdr0liV-20" target="Y1LxKdZVDl90hJdr0liV-3" edge="1">
          <mxGeometry relative="1" as="geometry" />
        </mxCell>
        <mxCell id="Y1LxKdZVDl90hJdr0liV-29" style="rounded=0;orthogonalLoop=1;jettySize=auto;html=1;exitX=1;exitY=0.3333333333333333;exitDx=0;exitDy=0;exitPerimeter=0;entryX=0;entryY=0.5;entryDx=0;entryDy=0;endArrow=none;endFill=0;" parent="1" source="Y1LxKdZVDl90hJdr0liV-20" target="Y1LxKdZVDl90hJdr0liV-5" edge="1">
          <mxGeometry relative="1" as="geometry" />
        </mxCell>
        <mxCell id="Y1LxKdZVDl90hJdr0liV-30" style="rounded=0;orthogonalLoop=1;jettySize=auto;html=1;exitX=1;exitY=0.3333333333333333;exitDx=0;exitDy=0;exitPerimeter=0;entryX=0;entryY=0.5;entryDx=0;entryDy=0;endArrow=none;endFill=0;" parent="1" source="Y1LxKdZVDl90hJdr0liV-20" target="Y1LxKdZVDl90hJdr0liV-6" edge="1">
          <mxGeometry relative="1" as="geometry" />
        </mxCell>
        <mxCell id="Y1LxKdZVDl90hJdr0liV-31" style="rounded=0;orthogonalLoop=1;jettySize=auto;html=1;exitX=1;exitY=0.3333333333333333;exitDx=0;exitDy=0;exitPerimeter=0;entryX=0;entryY=0.5;entryDx=0;entryDy=0;endArrow=none;endFill=0;" parent="1" source="Y1LxKdZVDl90hJdr0liV-20" target="Y1LxKdZVDl90hJdr0liV-7" edge="1">
          <mxGeometry relative="1" as="geometry" />
        </mxCell>
        <mxCell id="Y1LxKdZVDl90hJdr0liV-32" style="rounded=0;orthogonalLoop=1;jettySize=auto;html=1;exitX=1;exitY=0.3333333333333333;exitDx=0;exitDy=0;exitPerimeter=0;entryX=0;entryY=0.5;entryDx=0;entryDy=0;endArrow=none;endFill=0;" parent="1" source="Y1LxKdZVDl90hJdr0liV-20" target="Y1LxKdZVDl90hJdr0liV-8" edge="1">
          <mxGeometry relative="1" as="geometry" />
        </mxCell>
        <mxCell id="Y1LxKdZVDl90hJdr0liV-33" style="rounded=0;orthogonalLoop=1;jettySize=auto;html=1;exitX=1;exitY=0.3333333333333333;exitDx=0;exitDy=0;exitPerimeter=0;entryX=0;entryY=0.5;entryDx=0;entryDy=0;endArrow=none;endFill=0;" parent="1" source="Y1LxKdZVDl90hJdr0liV-20" target="Y1LxKdZVDl90hJdr0liV-9" edge="1">
          <mxGeometry relative="1" as="geometry" />
        </mxCell>
        <mxCell id="Y1LxKdZVDl90hJdr0liV-34" style="rounded=0;orthogonalLoop=1;jettySize=auto;html=1;exitX=1;exitY=0.3333333333333333;exitDx=0;exitDy=0;exitPerimeter=0;entryX=0;entryY=0.5;entryDx=0;entryDy=0;endArrow=none;endFill=0;" parent="1" source="Y1LxKdZVDl90hJdr0liV-20" target="Y1LxKdZVDl90hJdr0liV-10" edge="1">
          <mxGeometry relative="1" as="geometry" />
        </mxCell>
        <mxCell id="Y1LxKdZVDl90hJdr0liV-35" style="rounded=0;orthogonalLoop=1;jettySize=auto;html=1;exitX=1;exitY=0.3333333333333333;exitDx=0;exitDy=0;exitPerimeter=0;entryX=0;entryY=0.5;entryDx=0;entryDy=0;endArrow=none;endFill=0;" parent="1" source="Y1LxKdZVDl90hJdr0liV-20" target="Y1LxKdZVDl90hJdr0liV-11" edge="1">
          <mxGeometry relative="1" as="geometry" />
        </mxCell>
        <mxCell id="Y1LxKdZVDl90hJdr0liV-36" style="rounded=0;orthogonalLoop=1;jettySize=auto;html=1;exitX=1;exitY=0.3333333333333333;exitDx=0;exitDy=0;exitPerimeter=0;entryX=0;entryY=0.5;entryDx=0;entryDy=0;endArrow=none;endFill=0;" parent="1" source="Y1LxKdZVDl90hJdr0liV-20" target="Y1LxKdZVDl90hJdr0liV-12" edge="1">
          <mxGeometry relative="1" as="geometry" />
        </mxCell>
        <mxCell id="Y1LxKdZVDl90hJdr0liV-37" style="rounded=0;orthogonalLoop=1;jettySize=auto;html=1;exitX=1;exitY=0.3333333333333333;exitDx=0;exitDy=0;exitPerimeter=0;entryX=0;entryY=0.5;entryDx=0;entryDy=0;endArrow=none;endFill=0;" parent="1" source="Y1LxKdZVDl90hJdr0liV-20" target="Y1LxKdZVDl90hJdr0liV-13" edge="1">
          <mxGeometry relative="1" as="geometry" />
        </mxCell>
        <mxCell id="Y1LxKdZVDl90hJdr0liV-40" style="rounded=0;orthogonalLoop=1;jettySize=auto;html=1;exitX=1;exitY=0.3333333333333333;exitDx=0;exitDy=0;exitPerimeter=0;entryX=0;entryY=0.5;entryDx=0;entryDy=0;endArrow=none;endFill=0;" parent="1" source="Y1LxKdZVDl90hJdr0liV-20" target="Y1LxKdZVDl90hJdr0liV-15" edge="1">
          <mxGeometry relative="1" as="geometry" />
        </mxCell>
        <mxCell id="Y1LxKdZVDl90hJdr0liV-42" style="rounded=0;orthogonalLoop=1;jettySize=auto;html=1;exitX=1;exitY=0.3333333333333333;exitDx=0;exitDy=0;exitPerimeter=0;entryX=0;entryY=0.5;entryDx=0;entryDy=0;endArrow=none;endFill=0;" parent="1" source="Y1LxKdZVDl90hJdr0liV-20" target="Y1LxKdZVDl90hJdr0liV-18" edge="1">
          <mxGeometry relative="1" as="geometry" />
        </mxCell>
        <mxCell id="Y1LxKdZVDl90hJdr0liV-20" value="Usuario administrador" style="shape=umlActor;verticalLabelPosition=bottom;verticalAlign=top;html=1;outlineConnect=0;" parent="1" vertex="1">
          <mxGeometry x="-760" y="170" width="50" height="80" as="geometry" />
        </mxCell>
        <mxCell id="Y1LxKdZVDl90hJdr0liV-38" style="rounded=0;orthogonalLoop=1;jettySize=auto;html=1;exitX=1;exitY=0.3333333333333333;exitDx=0;exitDy=0;exitPerimeter=0;entryX=0;entryY=0.5;entryDx=0;entryDy=0;endArrow=none;endFill=0;" parent="1" source="Y1LxKdZVDl90hJdr0liV-21" target="Y1LxKdZVDl90hJdr0liV-13" edge="1">
          <mxGeometry relative="1" as="geometry" />
        </mxCell>
        <mxCell id="Y1LxKdZVDl90hJdr0liV-39" style="rounded=0;orthogonalLoop=1;jettySize=auto;html=1;exitX=1;exitY=0.3333333333333333;exitDx=0;exitDy=0;exitPerimeter=0;entryX=0;entryY=0.5;entryDx=0;entryDy=0;endArrow=none;endFill=0;" parent="1" source="Y1LxKdZVDl90hJdr0liV-21" target="Y1LxKdZVDl90hJdr0liV-14" edge="1">
          <mxGeometry relative="1" as="geometry" />
        </mxCell>
        <mxCell id="Y1LxKdZVDl90hJdr0liV-43" style="rounded=0;orthogonalLoop=1;jettySize=auto;html=1;exitX=1;exitY=0.3333333333333333;exitDx=0;exitDy=0;exitPerimeter=0;entryX=0;entryY=0.5;entryDx=0;entryDy=0;endArrow=none;endFill=0;" parent="1" source="Y1LxKdZVDl90hJdr0liV-21" target="Y1LxKdZVDl90hJdr0liV-18" edge="1">
          <mxGeometry relative="1" as="geometry" />
        </mxCell>
        <mxCell id="ZId8J9jYr6lsyPo-sA-K-6" style="rounded=0;orthogonalLoop=1;jettySize=auto;html=1;exitX=1;exitY=0.3333333333333333;exitDx=0;exitDy=0;exitPerimeter=0;entryX=0;entryY=0.5;entryDx=0;entryDy=0;endArrow=none;endFill=0;" parent="1" source="Y1LxKdZVDl90hJdr0liV-21" target="Y1LxKdZVDl90hJdr0liV-1" edge="1">
          <mxGeometry relative="1" as="geometry" />
        </mxCell>
        <mxCell id="ZId8J9jYr6lsyPo-sA-K-7" style="rounded=0;orthogonalLoop=1;jettySize=auto;html=1;exitX=1;exitY=0.3333333333333333;exitDx=0;exitDy=0;exitPerimeter=0;entryX=0;entryY=0.5;entryDx=0;entryDy=0;endArrow=none;endFill=0;" parent="1" source="Y1LxKdZVDl90hJdr0liV-21" target="Y1LxKdZVDl90hJdr0liV-2" edge="1">
          <mxGeometry relative="1" as="geometry" />
        </mxCell>
        <mxCell id="ZId8J9jYr6lsyPo-sA-K-9" style="rounded=0;orthogonalLoop=1;jettySize=auto;html=1;exitX=1;exitY=0.3333333333333333;exitDx=0;exitDy=0;exitPerimeter=0;entryX=0;entryY=0.5;entryDx=0;entryDy=0;endArrow=none;endFill=0;" parent="1" source="Y1LxKdZVDl90hJdr0liV-21" target="Y1LxKdZVDl90hJdr0liV-3" edge="1">
          <mxGeometry relative="1" as="geometry" />
        </mxCell>
        <mxCell id="Y1LxKdZVDl90hJdr0liV-21" value="Gerente de inventario" style="shape=umlActor;verticalLabelPosition=bottom;verticalAlign=top;html=1;outlineConnect=0;" parent="1" vertex="1">
          <mxGeometry x="-827" y="455" width="50" height="80" as="geometry" />
        </mxCell>
        <mxCell id="Y1LxKdZVDl90hJdr0liV-41" style="rounded=0;orthogonalLoop=1;jettySize=auto;html=1;exitX=1;exitY=0.3333333333333333;exitDx=0;exitDy=0;exitPerimeter=0;entryX=0;entryY=0.5;entryDx=0;entryDy=0;endArrow=none;endFill=0;" parent="1" source="Y1LxKdZVDl90hJdr0liV-22" target="Y1LxKdZVDl90hJdr0liV-17" edge="1">
          <mxGeometry relative="1" as="geometry" />
        </mxCell>
        <mxCell id="Y1LxKdZVDl90hJdr0liV-44" style="rounded=0;orthogonalLoop=1;jettySize=auto;html=1;exitX=1;exitY=0.3333333333333333;exitDx=0;exitDy=0;exitPerimeter=0;entryX=0;entryY=0.5;entryDx=0;entryDy=0;endArrow=none;endFill=0;" parent="1" source="Y1LxKdZVDl90hJdr0liV-22" target="Y1LxKdZVDl90hJdr0liV-18" edge="1">
          <mxGeometry relative="1" as="geometry" />
        </mxCell>
        <mxCell id="ZId8J9jYr6lsyPo-sA-K-10" style="rounded=0;orthogonalLoop=1;jettySize=auto;html=1;exitX=1;exitY=0.3333333333333333;exitDx=0;exitDy=0;exitPerimeter=0;entryX=0;entryY=0.5;entryDx=0;entryDy=0;endArrow=none;endFill=0;" parent="1" source="Y1LxKdZVDl90hJdr0liV-22" target="Y1LxKdZVDl90hJdr0liV-1" edge="1">
          <mxGeometry relative="1" as="geometry" />
        </mxCell>
        <mxCell id="ZId8J9jYr6lsyPo-sA-K-11" style="rounded=0;orthogonalLoop=1;jettySize=auto;html=1;exitX=1;exitY=0.3333333333333333;exitDx=0;exitDy=0;exitPerimeter=0;entryX=0;entryY=0.5;entryDx=0;entryDy=0;endArrow=none;endFill=0;" parent="1" source="Y1LxKdZVDl90hJdr0liV-22" target="Y1LxKdZVDl90hJdr0liV-2" edge="1">
          <mxGeometry relative="1" as="geometry" />
        </mxCell>
        <mxCell id="ZId8J9jYr6lsyPo-sA-K-12" style="rounded=0;orthogonalLoop=1;jettySize=auto;html=1;exitX=1;exitY=0.3333333333333333;exitDx=0;exitDy=0;exitPerimeter=0;entryX=0;entryY=0.5;entryDx=0;entryDy=0;endArrow=none;endFill=0;" parent="1" source="Y1LxKdZVDl90hJdr0liV-22" target="Y1LxKdZVDl90hJdr0liV-3" edge="1">
          <mxGeometry relative="1" as="geometry" />
        </mxCell>
        <mxCell id="Y1LxKdZVDl90hJdr0liV-22" value="Auditor" style="shape=umlActor;verticalLabelPosition=bottom;verticalAlign=top;html=1;outlineConnect=0;" parent="1" vertex="1">
          <mxGeometry x="-750" y="730" width="50" height="80" as="geometry" />
        </mxCell>
        <mxCell id="Y1LxKdZVDl90hJdr0liV-23" value="" style="endArrow=classic;html=1;rounded=0;dashed=1;dashPattern=8 8;entryX=0;entryY=0.5;entryDx=0;entryDy=0;exitX=1;exitY=0.5;exitDx=0;exitDy=0;" parent="1" source="Y1LxKdZVDl90hJdr0liV-2" target="Y1LxKdZVDl90hJdr0liV-4" edge="1">
          <mxGeometry width="50" height="50" relative="1" as="geometry">
            <mxPoint x="390" y="320" as="sourcePoint" />
            <mxPoint x="430" y="324.62" as="targetPoint" />
          </mxGeometry>
        </mxCell>
        <mxCell id="Y1LxKdZVDl90hJdr0liV-24" value="&amp;lt;&amp;lt;include&amp;gt;&amp;gt;" style="edgeLabel;html=1;align=center;verticalAlign=middle;resizable=0;points=[];" parent="Y1LxKdZVDl90hJdr0liV-23" vertex="1" connectable="0">
          <mxGeometry x="-0.1718" y="-2" relative="1" as="geometry">
            <mxPoint as="offset" />
          </mxGeometry>
        </mxCell>
        <mxCell id="ZId8J9jYr6lsyPo-sA-K-1" style="rounded=0;orthogonalLoop=1;jettySize=auto;html=1;exitX=0;exitY=0.5;exitDx=0;exitDy=0;entryX=1;entryY=0.3333333333333333;entryDx=0;entryDy=0;entryPerimeter=0;endArrow=none;endFill=0;" parent="1" source="Y1LxKdZVDl90hJdr0liV-19" target="Y1LxKdZVDl90hJdr0liV-20" edge="1">
          <mxGeometry relative="1" as="geometry" />
        </mxCell>
        <mxCell id="ZId8J9jYr6lsyPo-sA-K-3" style="rounded=0;orthogonalLoop=1;jettySize=auto;html=1;exitX=0;exitY=0.5;exitDx=0;exitDy=0;entryX=1;entryY=0.3333333333333333;entryDx=0;entryDy=0;entryPerimeter=0;endArrow=none;endFill=0;" parent="1" source="Y1LxKdZVDl90hJdr0liV-19" target="Y1LxKdZVDl90hJdr0liV-21" edge="1">
          <mxGeometry relative="1" as="geometry" />
        </mxCell>
        <mxCell id="ZId8J9jYr6lsyPo-sA-K-4" style="rounded=0;orthogonalLoop=1;jettySize=auto;html=1;exitX=0;exitY=0.5;exitDx=0;exitDy=0;entryX=1;entryY=0.3333333333333333;entryDx=0;entryDy=0;entryPerimeter=0;endArrow=none;endFill=0;" parent="1" source="Y1LxKdZVDl90hJdr0liV-19" target="Y1LxKdZVDl90hJdr0liV-22" edge="1">
          <mxGeometry relative="1" as="geometry" />
        </mxCell>
        <mxCell id="ZId8J9jYr6lsyPo-sA-K-5" style="rounded=0;orthogonalLoop=1;jettySize=auto;html=1;exitX=0;exitY=0.5;exitDx=0;exitDy=0;entryX=1;entryY=0.3333333333333333;entryDx=0;entryDy=0;entryPerimeter=0;endArrow=none;endFill=0;" parent="1" source="Y1LxKdZVDl90hJdr0liV-16" target="Y1LxKdZVDl90hJdr0liV-20" edge="1">
          <mxGeometry relative="1" as="geometry" />
        </mxCell>
      </root>
    </mxGraphModel>
  </diagram>
</mxfile>
